<svg width="347" height="230" viewBox="0 0 347 230" fill="none" xmlns="http://www.w3.org/2000/svg">
<g clip-path="url(#clip0_26_1372)">
<path d="M195.248 225.053H190.262L187.889 209.874L195.25 209.875L195.248 225.053Z" fill="#A0616A"/>
<path d="M196.52 229.891L180.441 229.891V229.687C180.441 228.865 180.603 228.05 180.918 227.29C181.232 226.53 181.693 225.84 182.274 225.258C182.856 224.677 183.545 224.215 184.305 223.901C185.064 223.586 185.878 223.424 186.7 223.424H186.7L196.52 223.424L196.52 229.891Z" fill="#2F2E41"/>
<path d="M213.958 225.053H208.972L206.6 209.874L213.96 209.875L213.958 225.053Z" fill="#A0616A"/>
<path d="M215.23 229.891L199.152 229.891V229.687C199.152 228.865 199.313 228.05 199.628 227.29C199.942 226.53 200.403 225.84 200.985 225.258C201.566 224.677 202.256 224.215 203.015 223.901C203.774 223.586 204.588 223.424 205.41 223.424H205.41L215.231 223.424L215.23 229.891Z" fill="#2F2E41"/>
<path d="M273.855 230H118.886C118.778 230 118.675 229.957 118.598 229.881C118.522 229.804 118.479 229.701 118.479 229.593C118.479 229.485 118.522 229.381 118.598 229.305C118.675 229.229 118.778 229.186 118.886 229.186H273.855C273.963 229.186 274.067 229.229 274.143 229.305C274.219 229.381 274.262 229.485 274.262 229.593C274.262 229.701 274.219 229.804 274.143 229.881C274.067 229.957 273.963 230 273.855 230Z" fill="#3F3D56"/>
<path d="M333.436 153.921C330.931 156.66 327.823 158.7 324.451 160.283H324.447C324.13 160.434 323.813 160.581 323.491 160.719H323.487L323.483 160.723L323.479 160.719H323.475C323.475 160.72 323.475 160.72 323.475 160.721C323.475 160.721 323.474 160.722 323.474 160.722C323.473 160.722 323.473 160.723 323.472 160.723C323.472 160.723 323.471 160.723 323.471 160.723H323.467L323.463 160.719C323.459 160.723 323.459 160.723 323.455 160.719L323.451 160.723L323.446 160.719H323.443C323.438 160.723 323.438 160.723 323.434 160.719H323.43C321.173 161.696 318.855 162.526 316.491 163.202C302.589 167.15 287.976 167.914 273.738 165.437C273.466 165.388 273.197 165.339 272.925 165.291V132.272C273.193 132.158 273.466 132.044 273.738 131.934C275.516 131.198 277.315 130.521 279.136 129.903C281.755 129.008 284.411 128.24 287.104 127.599C295.889 125.471 304.953 124.738 313.965 125.425C315.605 125.547 317.24 125.724 318.871 125.954C322.283 126.431 325.862 127.261 329.011 128.702H329.015C329.475 128.918 329.926 129.142 330.373 129.382C333.172 130.9 335.531 132.989 336.971 135.851C337.488 136.878 337.86 137.973 338.077 139.103V139.111C338.158 139.502 338.215 139.897 338.26 140.288C338.773 145.108 336.775 150.265 333.436 153.921Z" fill="#F2F2F2"/>
<path d="M338.26 140.288C338.22 140.298 338.179 140.303 338.138 140.304C331.171 140.609 324.213 141.063 317.264 141.664H317.252C317.223 141.668 317.199 141.668 317.171 141.672C310.036 142.291 302.917 143.065 295.812 143.996C295.511 144.037 295.214 144.078 294.917 144.114C290.004 144.77 285.1 145.497 280.206 146.296C278.046 146.65 275.89 147.02 273.738 147.404C273.466 147.452 273.197 147.497 272.925 147.55V146.317C273.197 146.264 273.47 146.219 273.738 146.17C280.905 144.9 288.096 143.791 295.312 142.844C297.126 142.6 298.943 142.369 300.762 142.152C306.017 141.517 311.281 140.969 316.552 140.508C316.939 140.475 317.321 140.442 317.707 140.41C324.455 139.836 331.213 139.4 337.979 139.103C338.012 139.102 338.045 139.104 338.077 139.111C338.728 139.168 338.866 140.145 338.26 140.288Z" fill="white"/>
<path d="M323.791 159.52C315.111 159.583 306.56 155.9 300.42 149.803C298.688 148.076 297.161 146.154 295.871 144.075C295.457 143.411 294.489 144.143 294.899 144.802C299.667 152.455 307.61 157.907 316.367 159.912C318.853 160.476 321.397 160.748 323.947 160.723C324.725 160.718 324.564 159.514 323.791 159.52V159.52Z" fill="white"/>
<path d="M329.73 128.381C324.209 130.756 319.589 134.833 316.543 140.018C316.481 140.166 316.48 140.333 316.541 140.482C316.601 140.631 316.718 140.75 316.865 140.813C317.014 140.872 317.179 140.871 317.327 140.811C317.475 140.751 317.594 140.636 317.66 140.491C320.567 135.594 324.954 131.747 330.186 129.506C330.904 129.199 330.45 128.074 329.73 128.381L329.73 128.381Z" fill="white"/>
<path d="M287.104 127.599C287.067 127.714 287 127.816 286.911 127.897C286.822 127.978 286.713 128.034 286.596 128.059C284.606 128.581 282.684 129.332 280.869 130.298C278.217 131.7 275.809 133.521 273.738 135.692C273.629 135.802 273.523 135.912 273.421 136.026C273.25 136.205 273.088 136.388 272.925 136.575V134.8C273.185 134.524 273.458 134.251 273.738 133.99C275.373 132.423 277.185 131.052 279.136 129.903C281.755 129.008 284.411 128.24 287.104 127.599Z" fill="white"/>
<path d="M346.375 93.8075C345.431 97.398 343.621 100.651 341.372 103.618L341.368 103.622C341.16 103.899 340.945 104.18 340.721 104.449V104.453C339.159 106.378 337.473 108.199 335.673 109.903C329.203 116.074 321.895 121.3 313.965 125.425C301.49 131.947 287.547 135.802 273.738 136.022C273.633 136.026 273.527 136.026 273.421 136.026C273.254 136.03 273.088 136.03 272.925 136.03V117.528C273.189 117.023 273.462 116.519 273.738 116.018C277.327 109.555 281.703 103.563 286.766 98.1796C286.888 98.0452 287.015 97.9109 287.141 97.7806C289.044 95.7697 291.04 93.855 293.128 92.0367C301.16 84.9683 310.443 79.4663 320.498 75.8146C323.739 74.6504 327.294 73.7182 330.752 73.535C331.26 73.5065 331.764 73.4943 332.273 73.4983C335.458 73.5431 338.512 74.2962 341.12 76.1606C342.053 76.8318 342.891 77.6275 343.609 78.5258C343.861 78.8392 344.093 79.1608 344.317 79.4905V79.4946C347.009 83.5247 347.636 89.0162 346.375 93.8075Z" fill="#F2F2F2"/>
<path d="M344.317 79.4905V79.4945C344.286 79.5208 344.254 79.544 344.219 79.5637C338.199 83.0687 332.255 86.7012 326.387 90.4613C326.379 90.4653 326.375 90.4694 326.367 90.4735C326.344 90.4899 326.319 90.5048 326.294 90.5182C320.262 94.3855 314.315 98.383 308.454 102.511C308.21 102.682 307.962 102.857 307.714 103.032C303.667 105.894 299.662 108.816 295.699 111.8C288.214 117.443 280.894 123.294 273.738 129.354C273.466 129.582 273.197 129.814 272.925 130.046V128.462C273.193 128.23 273.466 127.998 273.738 127.77C276.48 125.454 279.246 123.17 282.036 120.919C282.87 120.247 283.708 119.576 284.546 118.912C291.989 112.981 299.599 107.271 307.376 101.782H307.38C308.91 100.703 310.442 99.6341 311.976 98.5744C316.337 95.5701 320.746 92.6378 325.204 89.7774C325.525 89.5698 325.85 89.3622 326.176 89.1545C331.882 85.5071 337.664 81.9791 343.519 78.5705C343.548 78.5531 343.578 78.5381 343.609 78.5257C344.219 78.2814 344.792 79.0875 344.317 79.4905Z" fill="white"/>
<path d="M340.431 103.249C332.774 107.341 323.492 108.054 315.225 105.509C312.89 104.785 310.646 103.793 308.538 102.552C307.864 102.156 307.346 103.255 308.015 103.648C315.79 108.208 325.354 109.344 334.039 107.048C336.503 106.391 338.882 105.45 341.128 104.243C341.815 103.876 341.113 102.885 340.431 103.249V103.249Z" fill="white"/>
<path d="M283.143 118.144C282.764 116.012 282.634 113.845 282.755 111.683C283.029 106.755 284.537 101.974 287.14 97.7814C289.046 95.7711 291.042 93.8562 293.129 92.0366C293.149 92.1556 293.137 92.2777 293.095 92.3908C293.053 92.504 292.983 92.6043 292.891 92.6818C291.372 94.0687 290.019 95.627 288.859 97.3256C284.715 103.379 283.097 110.813 284.351 118.043C284.372 118.125 284.371 118.211 284.348 118.292C284.326 118.374 284.283 118.448 284.224 118.508C284.137 118.584 284.032 118.636 283.918 118.658C283.805 118.68 283.688 118.673 283.579 118.636C283.47 118.599 283.372 118.534 283.295 118.448C283.219 118.362 283.166 118.257 283.143 118.144Z" fill="white"/>
<path d="M331.239 72.9131C327.452 77.5833 325.253 83.3412 324.962 89.3489C324.976 89.5089 325.053 89.6569 325.175 89.7607C325.298 89.8645 325.456 89.9158 325.616 89.9033C325.775 89.8863 325.921 89.8087 326.024 89.6867C326.128 89.5647 326.18 89.4077 326.17 89.2481C326.472 83.5599 328.571 78.1145 332.165 73.6972C332.658 73.0915 331.733 72.3062 331.239 72.9131Z" fill="white"/>
<path d="M289.117 86.2886V86.2926C289.089 86.6427 289.056 86.9887 289.02 87.3348V87.3429C288.737 89.8059 288.295 92.248 287.698 94.654C287.413 95.8346 287.104 97.007 286.767 98.1793C286.726 98.33 286.681 98.4806 286.636 98.6271V98.6312C285.643 102.041 284.456 105.391 283.081 108.666C280.552 114.694 277.422 120.453 273.738 125.853C273.474 126.247 273.202 126.642 272.925 127.033V63.2845C273.197 63.2682 273.466 63.2682 273.738 63.2763C273.868 63.2763 273.999 63.2804 274.129 63.2886C275.277 63.3489 276.41 63.5695 277.497 63.944C277.879 64.0702 278.249 64.2126 278.615 64.3714C283.053 66.3172 286.539 70.6079 288.052 75.3259C289.187 78.8593 289.414 82.576 289.117 86.2886Z" fill="#F2F2F2"/>
<path d="M289.247 86.944C289.174 87.0743 289.101 87.2045 289.02 87.3348C287.825 89.4179 286.404 91.3621 284.781 93.1316C281.665 96.5152 277.913 99.2501 273.738 101.18C273.47 101.31 273.197 101.432 272.925 101.546V100.223C273.197 100.101 273.47 99.9746 273.738 99.8444C279.781 96.9599 284.8 92.2989 288.125 86.484C288.173 86.401 288.238 86.3292 288.316 86.2736C288.394 86.218 288.483 86.1799 288.578 86.1617C288.672 86.1436 288.769 86.1459 288.862 86.1685C288.955 86.1911 289.042 86.2334 289.117 86.2927C289.169 86.3269 289.213 86.3708 289.247 86.4221C289.281 86.4733 289.305 86.5309 289.317 86.5914C289.329 86.6518 289.33 86.7141 289.318 86.7746C289.306 86.8352 289.282 86.8927 289.247 86.944Z" fill="white"/>
<path d="M278.615 64.3716C278.606 64.4115 278.591 64.4499 278.57 64.4856C276.923 67.6893 275.313 70.9093 273.738 74.1456C273.466 74.7033 273.193 75.2651 272.925 75.8228V73.0546C273.193 72.501 273.465 71.9474 273.738 71.3937C274.955 68.9268 276.191 66.4708 277.448 64.0256C277.462 63.9971 277.478 63.9698 277.497 63.9442C277.871 63.4068 278.798 63.7732 278.615 64.3716Z" fill="white"/>
<path d="M273.738 13.4336V44.3717H272.925V44.0419H0.813495V44.3717H7.62939e-06V13.4336C0.0035009 9.87188 1.41878 6.45701 3.93523 3.93848C6.45169 1.41994 9.86374 0.00349615 13.4225 0H260.316C263.875 0.00349615 267.287 1.41994 269.803 3.93848C272.32 6.45701 273.735 9.87188 273.738 13.4336Z" fill="#FB9400"/>
<path d="M260.316 0H13.4225C9.86374 0.00349615 6.45169 1.41994 3.93523 3.93848C1.41878 6.45701 0.0035009 9.87188 7.62939e-06 13.4336V190.106C0.0035009 193.668 1.41878 197.083 3.93523 199.601C6.45169 202.12 9.86374 203.536 13.4225 203.54H260.316C263.875 203.536 267.287 202.12 269.803 199.601C272.32 197.083 273.735 193.668 273.738 190.106V13.4336C273.735 9.87188 272.32 6.45701 269.803 3.93848C267.287 1.41994 263.875 0.00349615 260.316 0ZM272.925 190.106C272.921 193.452 271.591 196.659 269.227 199.025C266.863 201.39 263.659 202.721 260.316 202.726H13.4225C10.0797 202.721 6.87504 201.39 4.51131 199.025C2.14758 196.659 0.81776 193.452 0.813495 190.106V13.4336C0.81776 10.088 2.14758 6.88072 4.51131 4.51503C6.87504 2.14935 10.0797 0.818428 13.4225 0.814159H260.316C263.659 0.818429 266.863 2.14935 269.227 4.51503C271.591 6.88072 272.921 10.088 272.925 13.4336V190.106Z" fill="#3F3D56"/>
<path d="M243.469 172.11H195.076C192.964 172.108 190.939 171.267 189.445 169.772C187.952 168.278 187.112 166.251 187.109 164.137V141.245C187.112 139.131 187.952 137.105 189.445 135.61C190.939 134.115 192.964 133.274 195.076 133.272H243.469C245.582 133.274 247.607 134.115 249.1 135.61C250.594 137.105 251.434 139.131 251.436 141.245V164.137C251.434 166.251 250.594 168.278 249.1 169.772C247.607 171.267 245.582 172.108 243.469 172.11Z" fill="#F2F2F2"/>
<path d="M189.226 222.053C188.771 222.054 188.332 221.884 187.996 221.577C187.659 221.271 187.449 220.849 187.406 220.396L183.061 161.903L183.266 161.886L213.17 159.426L213.178 159.639L215.556 220.233C215.565 220.479 215.524 220.724 215.437 220.955C215.349 221.185 215.216 221.395 215.045 221.572C214.874 221.75 214.669 221.891 214.443 221.987C214.216 222.083 213.973 222.133 213.727 222.133H207.863C207.425 222.135 207.001 221.979 206.669 221.694C206.337 221.409 206.119 221.013 206.054 220.58L198.092 171.63C198.084 171.58 198.057 171.534 198.017 171.502C197.977 171.47 197.927 171.455 197.876 171.458C197.825 171.462 197.777 171.485 197.742 171.522C197.707 171.56 197.688 171.609 197.687 171.66L197.326 219.99C197.322 220.457 197.141 220.904 196.819 221.242C196.496 221.579 196.058 221.781 195.592 221.806L189.325 222.051C189.292 222.053 189.259 222.053 189.226 222.053Z" fill="#2F2E41"/>
<path d="M161.145 172.11H112.752C110.64 172.108 108.615 171.267 107.121 169.772C105.628 168.278 104.787 166.251 104.785 164.137V141.245C104.787 139.131 105.628 137.105 107.121 135.61C108.615 134.115 110.64 133.274 112.752 133.272H161.145C163.257 133.274 165.282 134.115 166.776 135.61C168.27 137.105 169.11 139.131 169.112 141.245V164.137C169.11 166.251 168.27 168.278 166.776 169.772C165.282 171.267 163.257 172.108 161.145 172.11Z" fill="#F2F2F2"/>
<path d="M78.6619 172.11H30.2691C28.1569 172.108 26.1318 171.267 24.6382 169.772C23.1446 168.278 22.3044 166.251 22.302 164.137V141.245C22.3044 139.131 23.1446 137.105 24.6382 135.61C26.1318 134.115 28.1569 133.274 30.2691 133.272H78.6619C80.7742 133.274 82.7993 134.115 84.2929 135.61C85.7865 137.105 86.6267 139.131 86.6291 141.245V164.137C86.6267 166.251 85.7865 168.278 84.2929 169.772C82.7993 171.267 80.7742 172.108 78.6619 172.11Z" fill="#F2F2F2"/>
<path d="M161.145 112.965H112.752C110.702 112.963 108.736 112.147 107.287 110.696C105.837 109.245 105.022 107.278 105.019 105.226V82.3351C105.022 80.2833 105.837 78.3161 107.287 76.8653C108.736 75.4144 110.702 74.5983 112.752 74.5959H161.145C163.195 74.5983 165.161 75.4144 166.61 76.8653C168.06 78.3161 168.875 80.2833 168.878 82.3351V105.226C168.875 107.278 168.06 109.245 166.61 110.696C165.161 112.147 163.195 112.963 161.145 112.965Z" fill="#FB9400"/>
<path d="M78.8207 112.965H30.4278C28.3777 112.963 26.4122 112.147 24.9625 110.696C23.5128 109.245 22.6974 107.278 22.6951 105.226V82.3351C22.6974 80.2833 23.5128 78.3161 24.9625 76.8653C26.4122 75.4144 28.3777 74.5983 30.4278 74.5959H78.8207C80.8708 74.5983 82.8363 75.4144 84.286 76.8653C85.7357 78.3161 86.5511 80.2833 86.5534 82.3351V105.226C86.5511 107.278 85.7357 109.245 84.286 110.696C82.8363 112.147 80.8708 112.963 78.8207 112.965Z" fill="#FB9400"/>
<path d="M54.6242 106.914C61.8715 106.914 67.7465 101.034 67.7465 93.7806C67.7465 86.5274 61.8715 80.6475 54.6242 80.6475C47.377 80.6475 41.5019 86.5274 41.5019 93.7806C41.5019 101.034 47.377 106.914 54.6242 106.914Z" fill="white"/>
<path d="M53.3235 98.7907C53.0283 98.7913 52.7409 98.6957 52.5047 98.5185L52.49 98.5075L49.4062 96.1444C49.2632 96.035 49.1431 95.8984 49.0529 95.7425C48.9626 95.5866 48.904 95.4144 48.8802 95.2358C48.8565 95.0572 48.8682 94.8756 48.9147 94.7015C48.9611 94.5274 49.0413 94.3642 49.1508 94.2212C49.2603 94.0782 49.3969 93.9581 49.5528 93.868C49.7087 93.7778 49.8808 93.7193 50.0593 93.6957C50.2378 93.6722 50.4191 93.6841 50.593 93.7307C50.7669 93.7773 50.9299 93.8578 51.0727 93.9676L53.0702 95.5005L57.7906 89.3394C57.9 89.1965 58.0365 89.0765 58.1923 88.9864C58.3481 88.8964 58.5201 88.8378 58.6985 88.8143C58.8768 88.7907 59.0581 88.8025 59.2319 88.8491C59.4057 88.8956 59.5687 88.976 59.7114 89.0856L59.6821 89.1255L59.7122 89.0862C60.0002 89.3077 60.1887 89.6345 60.2362 89.9949C60.2837 90.3554 60.1865 90.7199 59.9658 91.0087L54.4135 98.2556C54.2851 98.4226 54.12 98.5577 53.9309 98.6505C53.7419 98.7433 53.5341 98.7913 53.3235 98.7907Z" fill="#FB9400"/>
<path d="M137.183 106.725C144.43 106.725 150.305 100.845 150.305 93.5921C150.305 86.3389 144.43 80.459 137.183 80.459C129.936 80.459 124.061 86.3389 124.061 93.5921C124.061 100.845 129.936 106.725 137.183 106.725Z" fill="white"/>
<path d="M135.882 98.602C135.587 98.6025 135.299 98.507 135.063 98.3297L135.049 98.3188L131.965 95.9557C131.676 95.7345 131.488 95.4077 131.44 95.0472C131.392 94.6867 131.49 94.322 131.711 94.0333C131.932 93.7446 132.258 93.5556 132.618 93.5079C132.978 93.4602 133.343 93.5577 133.631 93.7788L135.629 95.3117L140.349 89.1506C140.459 89.0077 140.595 88.8878 140.751 88.7977C140.907 88.7076 141.079 88.6491 141.257 88.6256C141.435 88.602 141.617 88.6138 141.791 88.6604C141.964 88.7069 142.127 88.7873 142.27 88.8968L142.241 88.9367L142.271 88.8974C142.559 89.119 142.747 89.4458 142.795 89.8062C142.842 90.1666 142.745 90.5312 142.524 90.8199L136.972 98.0669C136.844 98.2339 136.679 98.369 136.49 98.4618C136.301 98.5546 136.093 98.6026 135.882 98.602Z" fill="#FB9400"/>
<path d="M243.469 113.011H195.076C192.964 113.009 190.939 112.168 189.445 110.673C187.952 109.178 187.112 107.152 187.109 105.038V82.1463C187.112 80.0323 187.952 78.0055 189.445 76.5107C190.939 75.0158 192.964 74.175 195.076 74.1726H243.469C245.582 74.175 247.607 75.0158 249.1 76.5107C250.594 78.0055 251.434 80.0323 251.436 82.1463V105.038C251.434 107.152 250.594 109.178 249.1 110.673C247.607 112.168 245.582 113.009 243.469 113.011Z" fill="#F2F2F2"/>
<path d="M225.87 155.565C226.301 155.093 226.623 154.533 226.814 153.923C227.006 153.313 227.061 152.668 226.976 152.035C226.892 151.401 226.669 150.793 226.324 150.255C225.98 149.717 225.522 149.261 224.982 148.919L217.656 109.769L208.746 113.075L218.749 150.519C218.235 151.464 218.086 152.566 218.329 153.614C218.573 154.663 219.192 155.585 220.07 156.207C220.947 156.829 222.023 157.108 223.092 156.989C224.161 156.871 225.149 156.364 225.87 155.565Z" fill="#A0616A"/>
<path d="M154.777 95.8266C154.799 96.0697 154.802 96.3142 154.786 96.5578L172.109 109.902L177.022 107.883L181.035 114.904L172.685 119.324C172.011 119.682 171.239 119.81 170.485 119.691C169.731 119.571 169.037 119.21 168.506 118.662L151.19 100.796C150.273 101.002 149.316 100.925 148.444 100.574C147.572 100.223 146.828 99.6143 146.311 98.8295C145.793 98.0447 145.526 97.1208 145.546 96.1806C145.566 95.2405 145.871 94.3286 146.422 93.5664C146.972 92.8041 147.741 92.2276 148.627 91.9135C149.512 91.5993 150.472 91.5625 151.379 91.8079C152.286 92.0532 153.097 92.5692 153.704 93.2871C154.311 94.0049 154.685 94.8907 154.777 95.8266H154.777Z" fill="#A0616A"/>
<path d="M196.265 165.633C191.898 165.62 187.553 165.026 183.343 163.866C182.938 163.748 182.586 163.493 182.346 163.146C182.106 162.798 181.994 162.379 182.027 161.958C183.372 141.729 183.688 126.03 180.86 115.169C179.655 110.539 180.202 105.664 182.361 101.792C185.611 95.9655 191.584 92.4192 197.956 92.5416C198.26 92.5474 198.568 92.5583 198.878 92.5742C208.548 93.0726 216.083 101.827 215.675 112.09L213.73 161.009C213.722 161.365 213.61 161.712 213.406 162.005C213.202 162.298 212.916 162.524 212.584 162.655C207.367 164.619 201.839 165.628 196.265 165.633Z" fill="#3F3D56"/>
<path d="M182.504 118.924L175.021 109.747C174.808 109.486 174.654 109.182 174.569 108.856C174.484 108.53 174.47 108.189 174.529 107.857C174.587 107.525 174.716 107.21 174.907 106.932C175.099 106.655 175.347 106.422 175.637 106.25L185.773 100.204C187.114 99.1214 188.83 98.615 190.543 98.796C192.257 98.9771 193.829 99.8309 194.914 101.17C196 102.509 196.511 104.225 196.334 105.94C196.158 107.656 195.309 109.231 193.973 110.321L186.051 119.022C185.824 119.271 185.546 119.468 185.236 119.6C184.926 119.732 184.592 119.795 184.255 119.786C183.919 119.777 183.588 119.695 183.286 119.546C182.983 119.398 182.717 119.186 182.504 118.924Z" fill="#3F3D56"/>
<path d="M206.044 117.773C205.737 117.635 205.463 117.433 205.24 117.18C205.018 116.926 204.854 116.628 204.757 116.305L201.388 105.027C200.657 103.465 200.575 101.677 201.159 100.054C201.743 98.4318 202.947 97.1074 204.505 96.3717C206.064 95.6359 207.85 95.5489 209.473 96.1296C211.096 96.7104 212.422 97.9115 213.161 99.4696L219.676 109.316C219.861 109.597 219.985 109.915 220.037 110.248C220.089 110.581 220.069 110.921 219.978 111.246C219.886 111.57 219.726 111.871 219.509 112.128C219.291 112.385 219.02 112.592 218.715 112.735L207.996 117.757C207.691 117.9 207.358 117.975 207.022 117.978C206.685 117.981 206.351 117.911 206.044 117.773Z" fill="#3F3D56"/>
<path d="M194.331 87.9802C199.848 87.9802 204.321 83.5038 204.321 77.9819C204.321 72.46 199.848 67.9836 194.331 67.9836C188.813 67.9836 184.341 72.46 184.341 77.9819C184.341 83.5038 188.813 87.9802 194.331 87.9802Z" fill="#A0616A"/>
<path d="M199.267 86.1859L191.862 84.4895C191.098 84.3146 190.181 83.9807 190.075 83.2037C189.932 82.1595 191.434 81.432 191.295 80.3873C191.161 79.3754 189.793 79.2449 188.818 78.9462C187.91 78.6274 187.161 77.9673 186.73 77.1057C186.3 76.2441 186.221 75.2485 186.511 74.3299C185.456 75.8181 183.045 75.9456 181.676 74.7399C180.307 73.5341 180.045 71.3464 180.867 69.7174C181.311 68.9172 181.937 68.2333 182.695 67.7211C183.453 67.209 184.321 66.8831 185.229 66.7699C187.053 66.5629 188.898 66.9071 190.526 67.7583C190.634 66.6049 192.073 66.1372 193.231 66.127C195.635 66.155 197.971 66.9325 199.913 68.3514C201.856 69.7702 203.308 71.7598 204.068 74.0432C205.488 78.6237 204.538 83.6447 200.564 86.3247L199.267 86.1859Z" fill="#2F2E41"/>
<path d="M218.421 30.3274C222.914 30.3274 226.556 26.6823 226.556 22.1858C226.556 17.6893 222.914 14.0442 218.421 14.0442C213.929 14.0442 210.286 17.6893 210.286 22.1858C210.286 26.6823 213.929 30.3274 218.421 30.3274Z" fill="white"/>
<path d="M55.3171 30.3274C59.8099 30.3274 63.452 26.6823 63.452 22.1858C63.452 17.6893 59.8099 14.0442 55.3171 14.0442C50.8244 14.0442 47.1823 17.6893 47.1823 22.1858C47.1823 26.6823 50.8244 30.3274 55.3171 30.3274Z" fill="white"/>
</g>
<defs>
<clipPath id="clip0_26_1372">
<rect width="347" height="230" fill="white"/>
</clipPath>
</defs>
</svg>
