<svg width="368" height="230" viewBox="0 0 368 230" fill="none" xmlns="http://www.w3.org/2000/svg">
<g clip-path="url(#clip0_26_1146)">
<path opacity="0.1" d="M368 158.996C368.026 149.709 365.818 140.552 361.564 132.298C357.309 124.043 351.131 116.933 343.552 111.567C343.762 109.561 343.869 107.546 343.874 105.529C343.874 73.6329 318.384 47.776 286.937 47.776C277.254 47.7656 267.733 50.264 259.302 55.0276C237.045 40.3828 207.987 31.5193 176.199 31.5193C124.477 31.5193 79.9853 54.989 60.2471 88.6413C59.1502 88.5769 58.0468 88.5415 56.9338 88.5415C25.493 88.5415 -0.00324285 114.398 -0.00324285 146.294C-0.0255715 157.563 3.2302 168.595 9.36724 178.045C9.36724 206.743 36.4493 230.003 69.8428 230.003H312.105C338.335 230.003 359.598 211.739 359.598 189.206C365.115 180.097 368.022 169.646 368 158.996Z" fill="#FB9400"/>
<path d="M284.936 185.792C286.322 191.379 286.288 197.224 284.836 202.795C284.576 203.789 284.27 204.819 284.476 205.826C284.595 206.398 284.875 206.936 284.939 207.518C284.968 208.049 284.91 208.581 284.769 209.094C283.341 215.851 283.852 222.871 284.428 229.765C284.183 229.765 284.106 229.878 283.849 229.878H277.65C277.541 228.066 275.289 226.709 274.189 225.264C273.125 223.848 272.389 222.213 272.034 220.478C271.68 218.742 271.716 216.95 272.14 215.23C273.105 211.369 275.949 208.284 277.406 204.594C279.014 200.533 278.876 195.936 280.584 191.921C281.565 189.601 283.399 187.79 284.936 185.792Z" fill="#3F3D56"/>
<path opacity="0.1" d="M284.936 185.792C286.322 191.379 286.288 197.224 284.836 202.795C284.576 203.789 284.27 204.819 284.476 205.826C284.595 206.398 284.875 206.936 284.939 207.518C284.968 208.049 284.91 208.581 284.769 209.094C283.341 215.851 283.852 222.871 284.428 229.765C284.183 229.765 284.106 229.878 283.849 229.878H277.65C277.541 228.066 275.289 226.709 274.189 225.264C273.125 223.848 272.389 222.213 272.034 220.478C271.68 218.742 271.716 216.95 272.14 215.23C273.105 211.369 275.949 208.284 277.406 204.594C279.014 200.533 278.876 195.936 280.584 191.921C281.565 189.601 283.399 187.79 284.936 185.792Z" fill="black"/>
<path d="M132.171 175.127C131.254 173.949 130.312 172.701 128.954 172.08C128.172 171.765 127.349 171.563 126.51 171.482C121.984 170.838 117.448 170.169 112.88 170.044C111.388 170.002 109.786 170.044 108.57 170.915C107.177 171.91 106.64 173.74 106.562 175.449C106.479 177.483 106.883 179.508 107.74 181.354C108.597 183.201 109.883 184.816 111.49 186.065C114.225 188.15 117.68 189.022 121.051 189.711C122.823 190.074 124.605 190.399 126.394 190.676C128.182 190.952 130.003 191.171 131.73 191.725C135.423 192.908 138.682 195.585 142.555 195.807C142.737 195.835 142.923 195.804 143.086 195.717C143.256 195.58 143.37 195.385 143.407 195.17C144.26 192.162 147.216 184.959 143.407 182.855C141.416 181.758 139.206 181.709 137.257 180.316C135.308 178.923 133.651 177.028 132.171 175.127Z" fill="#BE6F72"/>
<path d="M99.6527 195.096C97.1469 192.915 93.6888 191.76 91.8681 188.983C91.0671 187.761 90.6618 186.326 90.2597 184.917L89.076 180.664C88.9848 180.402 88.9433 180.126 88.9537 179.85C89.0438 178.962 90.0892 178.54 90.9706 178.402C95.4741 177.701 100.164 179.515 103.535 182.584C106.907 185.654 109.071 189.887 110.342 194.276C110.431 194.499 110.445 194.745 110.381 194.977C110.271 195.183 110.097 195.348 109.885 195.447C108.258 196.412 106.07 197.818 104.169 198.114C102.268 198.41 101.007 196.261 99.6527 195.096Z" fill="#BE6F72"/>
<path d="M209.596 176.758L222.785 182.038C224.036 182.538 225.066 183.472 225.687 184.668C226.307 185.865 226.477 187.244 226.166 188.556L216.351 229.842H191.814L196.085 182.871C196.085 182.871 205.414 175.149 209.596 176.758Z" fill="#3F3D56"/>
<path d="M197.694 111.448C197.693 115.719 196.343 119.88 193.838 123.339C191.332 126.797 187.798 129.375 183.74 130.705C179.682 132.035 175.308 132.049 171.242 130.746C167.175 129.442 163.625 126.887 161.096 123.445C158.538 119.969 157.16 115.765 157.162 111.448C157.162 106.073 159.297 100.917 163.098 97.1162C166.899 93.3151 172.053 91.1797 177.428 91.1797C182.803 91.1797 187.958 93.3151 191.758 97.1162C195.559 100.917 197.694 106.073 197.694 111.448Z" fill="#BE6F72"/>
<path d="M170.168 129.31C171.252 131.179 172.346 133.065 173.04 135.101C173.735 137.138 174.005 139.393 173.433 141.475C180.336 137.839 188.552 138.132 196.15 136.292C196.353 136.268 196.54 136.17 196.674 136.015C196.72 135.909 196.744 135.796 196.744 135.68C196.744 135.565 196.72 135.451 196.674 135.346C195.084 129.459 194.472 123.35 194.863 117.265L190.897 119.61C189.161 120.683 187.361 121.65 185.509 122.506C182.887 123.654 180.105 124.349 177.367 125.154C175.199 125.797 170.895 126.63 169.531 128.525C169.777 128.758 169.991 129.022 170.168 129.31Z" fill="#BE6F72"/>
<path d="M159.002 102.054C157.684 102.585 156.133 103.196 154.92 102.453C154.029 101.903 153.663 100.76 153.717 99.7148C153.772 98.6692 154.171 97.6783 154.486 96.681C155.129 94.6316 155.477 92.4986 156.194 90.4588C156.911 88.4191 158.082 86.4534 159.942 85.3756C163.364 83.3938 167.794 85.0314 171.593 83.9343C173.201 83.4742 174.601 82.5476 176.096 81.8206C177.592 81.0935 179.275 80.5337 180.889 80.9229C182.781 81.3637 184.177 82.9562 185.94 83.767C187.87 84.6549 190.179 84.5938 191.936 85.781C193.181 86.6239 193.966 87.9848 194.664 89.3199C196.897 93.6108 198.66 98.1304 199.923 102.8C200.428 104.472 200.717 106.202 200.782 107.948C200.798 110.18 200.193 112.368 199.595 114.524L198.63 117.934C198.273 119.221 197.906 120.508 197.231 121.672C196.555 122.837 195.513 123.818 194.223 124.156C192.615 124.571 190.742 123.767 190.041 122.261C189.61 121.328 189.629 120.26 189.607 119.234C189.571 117.224 189.356 115.221 188.964 113.25C188.764 112.262 188.497 111.236 187.825 110.489C186.956 109.524 185.573 109.202 184.286 109.18C182.781 109.161 181.131 109.569 180.252 110.789C179.548 111.773 179.426 113.156 178.49 113.925C178.074 114.245 177.579 114.446 177.058 114.508C175.996 114.64 174.921 114.412 174.003 113.861C173.086 113.31 172.38 112.467 171.998 111.467C171.702 110.618 171.558 109.563 170.753 109.164C170.335 108.955 169.837 108.993 169.389 108.858C168.019 108.443 167.659 106.706 167.533 105.281C167.389 103.611 167.945 100.313 165.87 100.201C163.635 100.078 161.058 101.368 159.002 102.054Z" fill="#3F3D56"/>
<path d="M163.863 124.024C163.149 124.369 162.367 124.771 162.087 125.511C161.978 125.8 161.959 126.119 161.859 126.415C161.405 127.724 159.636 127.982 158.722 129.024C158.31 129.551 158.033 130.17 157.915 130.829C157.305 133.425 157.502 136.146 158.481 138.627C158.765 139.414 159.202 140.135 159.768 140.751C161.402 142.417 164.22 142.385 166.256 141.249C168.292 140.114 169.698 138.122 170.892 136.102C171.524 135.085 172.053 134.007 172.471 132.885C172.838 131.743 173.1 130.57 173.253 129.381C173.967 124.745 174.9 119.604 174.578 114.903C173.613 114.842 171.77 114.775 170.917 115.38C169.849 116.139 170.145 117.67 169.759 118.78C168.846 121.451 166.195 122.86 163.863 124.024Z" fill="#3F3D56"/>
<path d="M222.334 171.803C222.09 172.338 221.73 172.865 221.784 173.448C221.816 173.795 221.997 174.123 221.971 174.467C221.919 175.143 221.138 175.519 220.462 175.526C219.787 175.532 219.108 175.314 218.442 175.429C217.348 175.616 216.608 176.623 215.663 177.205C214.344 178.016 212.697 177.968 211.159 178.106C207.942 178.396 204.899 179.602 201.988 180.976C200.01 181.909 197.909 183.106 197.163 185.158C196.092 188.054 198.17 191.104 198.63 194.166C198.753 195.198 198.783 196.238 198.72 197.274C198.382 208.091 197.8 219.032 197.182 229.836L79.2679 229.974L85.0742 219.798C90.7358 209.873 96.5485 199.761 105.089 192.172C106.356 191.028 107.779 190.07 109.316 189.328L116.164 195.441C116.713 195.986 117.349 196.435 118.046 196.769C119.333 197.294 120.774 196.994 122.154 197.039C124.808 197.126 127.233 198.481 129.537 199.803C131.226 200.72 132.851 201.751 134.4 202.888C135.308 203.583 136.617 204.018 137.562 204.658L137.341 193.108C137.318 192.066 137.302 190.998 137.614 190.003C138.219 188.073 139.946 186.709 140.776 184.872C141.152 184.045 141.336 183.144 141.651 182.298C142.097 181.21 142.651 180.17 143.304 179.193L147.573 172.334C148.628 170.642 149.68 168.95 150.825 167.319C155.834 160.173 162.576 154.45 169.135 148.707C168.983 147.07 169.361 145.428 170.213 144.023C170.549 143.555 170.827 143.048 171.043 142.514C171.182 141.88 171.222 141.229 171.162 140.583C171.162 140.419 171.162 140.262 171.162 140.088C171.233 139.036 171.673 138.043 172.403 137.283C173.156 136.501 174.163 136.025 175.154 135.581C180.281 133.287 185.612 131.48 191.077 130.182C191.949 129.976 192.872 129.783 193.731 130.044C193.991 130.884 194.879 131.179 195.767 131.392L196.336 131.524C197.844 131.849 199.25 132.536 200.434 133.525C201.679 134.612 202.535 136.066 203.368 137.498C209.631 148.253 212.517 162.364 222.206 170.179C222.675 170.549 222.579 171.289 222.334 171.803Z" fill="#FB9400"/>
<path opacity="0.1" d="M150.176 213.901C153.637 217.762 156.741 221.976 160.768 225.232C156.12 219.058 149.452 214.937 143.424 210.282C142.201 209.336 139.756 207.994 139.017 206.627C137.849 204.484 140.429 206.006 141.5 206.588C144.845 208.406 147.65 211.089 150.176 213.901Z" fill="black"/>
<path d="M132.438 180.41L99.0477 163.365C98.804 163.241 98.5056 163.337 98.3812 163.581L89.8716 180.256C89.7472 180.5 89.8439 180.798 90.0876 180.922L123.478 197.967C123.722 198.092 124.02 197.995 124.145 197.751L132.654 181.077C132.779 180.833 132.682 180.535 132.438 180.41Z" fill="#3F3D56"/>
<path d="M129.364 180.839L100.558 166.134L93.2486 180.456L122.055 195.161L129.364 180.839Z" fill="#E8E8F0"/>
<path d="M127.771 189.099C127.915 188.816 127.684 188.408 127.253 188.188C126.823 187.968 126.357 188.02 126.212 188.303C126.067 188.587 126.299 188.994 126.73 189.214C127.16 189.434 127.626 189.382 127.771 189.099Z" fill="#E6E8EC"/>
<path d="M96.2691 172.977C96.3571 172.804 96.2168 172.556 95.9557 172.423C95.6946 172.29 95.4115 172.321 95.3235 172.494C95.2354 172.666 95.3758 172.914 95.6369 173.048C95.898 173.181 96.1811 173.149 96.2691 172.977Z" fill="#E6E8EC"/>
<path d="M164.7 124.639C163.494 124.713 161.332 123.378 160.122 123.445C159.299 122.008 158.571 120.519 157.944 118.986C158.588 118.063 159.623 117.838 161.19 118.986C162.448 119.871 164.186 122.931 164.7 124.639Z" fill="#3F3D56"/>
<path d="M182.884 73.8065C181.575 74.4982 180.764 74.5304 180.117 74.392C179.471 74.2537 178.187 74.8971 178.187 74.8971C166.848 78.7771 166.401 80.6077 166.401 80.6077L179.529 75.9717C182.054 74.865 182.102 75.2542 182.102 75.2542C184.032 77.0688 186.49 75.8398 186.49 75.8398C186.49 75.8398 189.89 74.2312 188.889 72.6837C187.889 71.1362 184.196 73.1276 182.884 73.8065ZM188.352 73.5169C188.352 73.5169 187.387 76.0907 183.916 75.6725C183.916 75.6725 182.211 75.4215 182.932 74.1507C182.932 74.1507 186.47 72.6644 187.407 72.7705C188.343 72.8767 188.343 73.5298 188.343 73.5298L188.352 73.5169Z" fill="#E8E8F0"/>
<path opacity="0.1" d="M182.884 73.8065C181.575 74.4982 180.764 74.5304 180.117 74.392C179.471 74.2537 178.187 74.8971 178.187 74.8971C166.848 78.7771 166.401 80.6077 166.401 80.6077L179.529 75.9717C182.054 74.865 182.102 75.2542 182.102 75.2542C184.032 77.0688 186.49 75.8398 186.49 75.8398C186.49 75.8398 189.89 74.2312 188.889 72.6837C187.889 71.1362 184.196 73.1276 182.884 73.8065ZM188.352 73.5169C188.352 73.5169 187.387 76.0907 183.916 75.6725C183.916 75.6725 182.211 75.4215 182.932 74.1507C182.932 74.1507 186.47 72.6644 187.407 72.7705C188.343 72.8767 188.343 73.5298 188.343 73.5298L188.352 73.5169Z" fill="black"/>
<path d="M183.604 66.6322C181.642 66.6965 181.234 68.1636 181.234 68.1636C180.841 68.6324 180.611 69.2161 180.578 69.8269C180.544 70.4377 180.71 71.0428 181.05 71.5513L177.566 75.0163C176.906 75.271 176.339 75.7197 175.939 76.3032C175.939 76.3032 168.289 83.0594 168.402 83.6739C168.402 83.6739 169.65 84.3173 177.566 77.101L179.644 75.2608C179.644 75.2608 180.104 71.8215 183.35 71.1685C183.35 71.1685 183.672 71.31 183.842 70.5443C184.024 70.1771 184.267 69.8432 184.56 69.5566C184.991 69.1577 185.567 66.5646 183.604 66.6322ZM184.154 68.9582C184.154 68.9582 183.103 71.6736 181.603 70.8886C180.104 70.1035 181.562 68.2922 181.562 68.2922C184.161 65.7635 184.154 68.9582 184.154 68.9582Z" fill="#E8E8F0"/>
<path opacity="0.1" d="M177.634 76.3674C177.863 76.3674 178.049 76.1816 178.049 75.9524C178.049 75.7232 177.863 75.5374 177.634 75.5374C177.405 75.5374 177.219 75.7232 177.219 75.9524C177.219 76.1816 177.405 76.3674 177.634 76.3674Z" fill="black"/>
<path d="M213.935 62.8293C212.724 62.1913 211.467 61.645 210.175 61.195C208.457 60.7077 206.691 60.4057 204.909 60.2941C199.278 59.7579 193.629 59.4469 187.963 59.3611C186.963 59.3611 185.94 59.3386 184.991 59.6829C184.143 60.0082 183.375 60.5118 182.739 61.1596C181.637 62.2135 180.761 63.4812 180.166 64.8851C179.974 65.2369 179.917 65.6462 180.005 66.0369C180.133 66.4101 180.648 66.6578 180.941 66.394C180.192 66.9976 179.642 67.8124 179.362 68.7327C179.082 69.6529 179.085 70.636 179.371 71.5545C178.925 71.788 178.546 72.1328 178.271 72.5554C177.997 72.9781 177.836 73.4644 177.805 73.9674C180.143 74.4004 182.551 74.2837 184.836 73.6264C184.154 73.4526 183.45 74.0929 183.408 74.7942C183.413 75.1466 183.515 75.4908 183.702 75.7889C183.89 76.087 184.157 76.3273 184.473 76.4833C185.111 76.7852 185.814 76.9245 186.519 76.8886C189.243 76.8886 191.894 75.9653 194.612 75.8462C196.69 75.7529 198.833 76.1294 200.817 75.5245C203.121 74.8103 205.176 72.7867 207.55 73.2081C209.445 73.5459 210.68 75.3057 211.915 76.7792C213.89 79.131 216.332 81.0356 218.754 82.9242C220.62 84.3784 222.569 85.8711 224.882 86.3634C225.574 86.5521 226.308 86.5171 226.979 86.2637C227.54 85.9635 228.011 85.5193 228.343 84.9768C230.836 81.4378 230.84 76.9819 230.695 72.8349C230.621 70.7148 230.158 70.4284 228.195 69.5501C225.918 68.527 223.649 67.4793 221.389 66.4069C218.892 65.2401 216.408 64.0476 213.935 62.8293Z" fill="#FBBEBE"/>
<path d="M240.007 70.7694C239.624 70.9985 239.219 71.1893 238.798 71.3388C238.093 71.5061 237.376 71.2069 236.691 70.9753C233.796 70.0101 230.579 70.2385 227.78 69.0449C228.698 74.3134 227.497 79.7311 224.438 84.1177C223.859 84.9413 223.097 85.7842 222.093 85.8485C222.54 87.2223 223.917 88.0523 225.223 88.6701C227.309 89.6573 229.49 90.4271 231.734 90.9672C232.377 91.1184 233.162 91.1924 233.535 90.6454C233.76 90.3237 233.857 89.7736 234.253 89.7929C234.857 90.4363 234.658 91.7554 235.494 92.0449C235.755 92.1114 236.028 92.1114 236.289 92.0449L238.155 91.7232C238.714 91.6748 239.253 91.4891 239.724 91.1827C240.019 90.9265 240.263 90.6164 240.442 90.269C242.533 86.7075 243.337 82.5863 243.658 78.5165C243.816 76.496 244.012 74.3534 243.874 72.3265C243.745 70.5892 241.519 70.0648 240.007 70.7694Z" fill="#E8E8F0"/>
<path opacity="0.1" d="M240.007 70.7694C239.624 70.9985 239.219 71.1893 238.798 71.3388C238.093 71.5061 237.376 71.2069 236.691 70.9753C233.796 70.0101 230.579 70.2385 227.78 69.0449C228.698 74.3134 227.497 79.7311 224.438 84.1177C223.859 84.9413 223.097 85.7842 222.093 85.8485C222.54 87.2223 223.917 88.0523 225.223 88.6701C227.309 89.6573 229.49 90.4271 231.734 90.9672C232.377 91.1184 233.162 91.1924 233.535 90.6454C233.76 90.3237 233.857 89.7736 234.253 89.7929C234.857 90.4363 234.658 91.7554 235.494 92.0449C235.755 92.1114 236.028 92.1114 236.289 92.0449L238.155 91.7232C238.714 91.6748 239.253 91.4891 239.724 91.1827C240.019 90.9265 240.263 90.6164 240.442 90.269C242.533 86.7075 243.337 82.5863 243.658 78.5165C243.816 76.496 244.012 74.3534 243.874 72.3265C243.745 70.5892 241.519 70.0648 240.007 70.7694Z" fill="black"/>
<path d="M266.536 52.8045C264.111 53.8276 261.679 54.8539 259.421 56.2052C258.395 56.8164 257.41 57.492 256.355 58.0486C255.22 58.6535 254.013 59.1103 252.817 59.5993C249.514 60.9483 246.307 62.5198 243.218 64.3029C243.485 60.8444 242.98 57.0867 240.911 54.3906C240.607 53.9911 240.269 53.6186 239.901 53.2775C238.438 51.9198 236.363 51.5691 234.925 50.382C235.8 48.8441 237.743 47.4478 239.065 46.2736C240.493 45.0103 241.975 43.8124 243.51 42.6799C246.579 40.4132 249.847 38.4287 253.273 36.7505C255.448 35.6856 257.719 34.7333 260.119 34.4084C260.421 34.3403 260.737 34.3684 261.023 34.4888C261.396 34.6947 261.531 35.158 261.621 35.573C262.068 37.6482 262.296 39.778 262.67 41.8692C262.853 42.9439 263.101 44.0065 263.413 45.051C263.814 46.2863 264.276 47.5008 264.799 48.6897C265.38 50.0602 265.959 51.4319 266.536 52.8045Z" fill="#FBBEBE"/>
<path opacity="0.1" d="M261.846 39.7039C258.456 47.1582 251.774 54.5032 243.051 54.5032C242.338 54.5036 241.626 54.4681 240.918 54.397C240.614 53.9974 240.276 53.625 239.908 53.2838C238.444 51.9261 236.369 51.5755 234.931 50.3883C235.806 48.8505 237.749 47.4542 239.071 46.2799C240.5 45.0166 241.981 43.8187 243.517 42.6863C246.586 40.4196 249.854 38.435 253.28 36.7569C255.454 35.692 257.726 34.7397 260.125 34.4147C260.428 34.3466 260.744 34.3748 261.029 34.4952C261.402 34.7011 261.537 35.1644 261.627 35.5794C262.075 37.6384 261.473 37.6127 261.846 39.7039Z" fill="black"/>
<path d="M243.05 53.8565C254.954 53.8565 264.603 44.2058 264.603 32.3011C264.603 20.3963 254.954 10.7456 243.05 10.7456C231.147 10.7456 221.498 20.3963 221.498 32.3011C221.498 44.2058 231.147 53.8565 243.05 53.8565Z" fill="#FBBEBE"/>
<path d="M287.934 103.991C287.584 106.597 286.971 109.161 286.107 111.644C285.785 112.549 285.39 113.43 284.981 114.299C282.585 119.379 281.269 124.871 280.642 130.456C280.594 130.895 280.513 131.331 280.401 131.759C279.928 133.56 278.93 135.169 278.168 136.864C277.391 138.696 276.746 140.58 276.238 142.504C276.055 142.987 275.993 143.507 276.058 144.019C276.177 144.563 276.569 144.985 276.846 145.477C278.274 147.938 276.624 150.946 276.068 153.732C275.878 154.697 275.794 155.746 275.167 156.499C274.633 157.143 273.803 157.439 273.015 157.709C261.781 161.528 250.284 164.522 238.615 166.666C236.874 166.987 235.076 167.287 233.349 166.965C231.621 166.643 229.9 165.575 229.308 163.908C228.967 162.943 229.025 161.894 229.054 160.871C229.119 158.722 229.054 156.56 228.938 154.395C228.565 147.269 227.719 140.117 229.582 133.29C230.138 131.276 230.923 129.333 231.554 127.341C232.786 123.458 233.104 119.443 233.413 115.415C233.667 112.095 233.915 108.762 234.658 105.487C235.211 103.045 234.845 100.506 234.812 98.0034C234.749 92.2755 236.432 86.6642 239.638 81.9172C240.194 81.0968 240.805 80.2861 241.098 79.3434C241.51 77.9922 241.227 76.5412 241.04 75.1385C240.57 71.5621 240.76 67.9299 241.6 64.4219C241.864 63.1093 242.366 61.8564 243.083 60.7253C243.884 59.5575 245.032 58.676 246.18 57.8459C252.847 53.0387 260.204 49.2694 268 46.666C268.717 48.4805 269.406 50.6007 269.956 52.457C270.03 52.708 270.081 53.0265 269.875 53.1873C269.669 53.3482 269.457 53.2613 269.232 53.2678C269 53.293 268.78 53.3879 268.603 53.5401C268.425 53.6922 268.298 53.8945 268.238 54.1203C268.125 54.576 268.168 55.0561 268.36 55.4844C268.798 56.6105 269.74 57.4502 270.647 58.2448L275.209 62.2246C275.755 62.7355 276.351 63.1904 276.988 63.5822C277.56 63.904 278.184 64.1324 278.773 64.4284C281.134 65.622 282.765 67.948 283.675 70.4317C284.586 72.9154 284.174 75.901 285.361 78.2592C289.305 86.0771 289.272 95.3267 287.934 103.991Z" fill="#E8E8F0"/>
<path d="M271.928 154.826C266.658 153.983 261.553 156.638 256.464 158.249C248.689 160.711 240.13 160.862 232.947 164.726C232.305 165.034 231.723 165.455 231.229 165.968C230.646 166.689 230.279 167.562 230.17 168.483C229.849 170.521 230.244 172.607 231.287 174.387C231.734 175.146 232.297 175.844 232.644 176.658C233.468 178.589 232.918 180.815 232.776 182.926C232.454 187.639 234.282 192.227 234.648 196.937C234.867 199.713 234.581 202.551 235.234 205.26C235.642 206.958 236.411 208.56 236.729 210.278C237.048 211.996 236.91 213.676 237.016 215.375C237.315 220.242 239.531 224.972 238.991 229.82L280.809 229.958C279.259 224.563 277.969 218.984 279.374 213.55C279.862 211.832 280.468 210.15 281.189 208.515C283.527 202.863 285.93 197.194 287.22 191.216C288.51 185.239 288.626 178.856 286.442 173.142C284.01 166.772 278.84 161.473 277.715 154.749C275.784 154.492 273.861 155.135 271.928 154.826Z" fill="#3F3D56"/>
<path d="M195.78 131.395C194.02 131.958 192.418 132.978 190.707 133.695C187.693 134.953 184.38 135.246 181.217 136.05C178.18 136.865 175.251 138.045 172.497 139.564C172.294 139.673 171.657 140.207 171.149 140.574C171.149 140.41 171.149 140.252 171.149 140.078C171.22 139.026 171.66 138.033 172.391 137.273C173.143 136.491 174.15 136.015 175.141 135.571C180.273 133.28 185.608 131.476 191.077 130.182C191.949 129.976 192.872 129.783 193.731 130.044C194.004 130.883 194.892 131.179 195.78 131.395Z" fill="#3F3D56"/>
<path d="M181.703 83.7478L181.568 83.4551L176.312 85.8809L175.434 86.2862L174.559 86.6884L181.97 102.758L182.845 102.353L183.723 101.948L188.98 99.5219L188.844 99.2324L183.588 101.658L183.453 101.365L188.709 98.9396L188.574 98.6468L183.318 101.073L183.183 100.78L188.439 98.3541L188.307 98.0613L183.048 100.487L182.913 100.198L188.172 97.7718L188.037 97.479L182.778 99.9048L182.643 99.612L187.902 97.1862L187.767 96.8935L182.511 99.3192L182.376 99.0265L187.632 96.6007L187.497 96.3111L182.24 98.7369L182.105 98.4442L187.362 96.0184L187.226 95.7256L181.97 98.1514L181.835 97.8586L187.095 95.4328L186.959 95.1401L181.7 97.5659L181.565 97.2763L186.824 94.8473L186.689 94.5577L181.43 96.9835L181.298 96.6908L186.554 94.265L186.419 93.9722L181.163 96.398L181.028 96.1052L186.284 93.6794L186.149 93.3867L180.893 95.8125L180.758 95.5229L186.014 93.0971L185.882 92.8044L180.622 95.2301L180.487 94.9374L185.747 92.5116L185.612 92.2188L180.352 94.6446L180.22 94.3518L185.477 91.9293L185.341 91.6365L180.085 94.0623L179.95 93.7695L185.206 91.3437L185.071 91.051L179.815 93.4768L179.68 93.184L184.936 90.7582L184.804 90.4654L179.545 92.8944L179.41 92.6017L184.669 90.1759L184.534 89.8831L179.275 92.3089L179.139 92.0161L184.399 89.5903L184.264 89.2976L179.008 91.7234L178.872 91.4306L184.129 89.0048L183.994 88.7153L178.737 91.141L178.602 90.8483L183.858 88.4225L183.723 88.1297L178.467 90.5555L178.332 90.2627L183.591 87.8369L183.456 87.5474L178.197 89.97L178.062 89.6804L183.321 87.2546L183.186 86.9619L177.927 89.3877L177.795 89.0949L183.051 86.6691L182.916 86.3763L177.66 88.8021L177.525 88.5093L182.781 86.0836L182.646 85.794L177.39 88.2198L177.254 87.927L182.511 85.5012L182.379 85.2085L177.119 87.6343L176.984 87.3415L182.244 84.9157L182.109 84.6229L176.849 87.0487L176.714 86.7592L181.973 84.3334L181.838 84.0406L176.579 86.4664L176.447 86.1736L181.703 83.7478Z" fill="black"/>
<path opacity="0.1" d="M198.205 119.092C197.527 120.241 196.488 121.238 195.198 121.576C193.589 121.991 191.717 121.187 191.016 119.681C190.585 118.748 190.604 117.68 190.582 116.654C190.546 114.644 190.331 112.641 189.938 110.67C189.739 109.682 189.472 108.656 188.799 107.909C187.931 106.944 186.548 106.622 185.261 106.6C183.756 106.581 182.105 106.989 181.227 108.209C180.523 109.193 180.4 110.576 179.464 111.345C179.048 111.665 178.554 111.866 178.033 111.928C176.971 112.06 175.895 111.832 174.978 111.281C174.061 110.73 173.355 109.887 172.973 108.887C172.677 108.038 172.532 106.983 171.728 106.584C171.31 106.375 170.811 106.413 170.364 106.278C168.994 105.863 168.633 104.126 168.508 102.701C168.363 101.031 168.92 97.7332 166.845 97.6206C164.625 97.4983 162.049 98.7885 159.993 99.4737C158.674 100.005 157.124 100.616 155.911 99.8727C155.02 99.3225 154.653 98.1804 154.708 97.1348C154.763 96.0892 155.162 95.0983 155.477 94.1009C156.017 92.4151 156.342 90.6649 156.837 88.9534C156.605 89.4376 156.397 89.9337 156.217 90.4397C155.502 92.4698 155.168 94.6221 154.512 96.6619C154.19 97.6592 153.798 98.6501 153.743 99.6957C153.688 100.741 154.065 101.883 154.946 102.434C156.159 103.177 157.709 102.565 159.028 102.035C161.084 101.349 163.66 100.059 165.88 100.182C167.955 100.294 167.398 103.592 167.543 105.262C167.668 106.687 168.029 108.424 169.399 108.839C169.846 108.974 170.345 108.936 170.763 109.145C171.567 109.544 171.728 110.599 172.008 111.448C172.39 112.448 173.096 113.291 174.013 113.842C174.93 114.393 176.006 114.621 177.068 114.489C177.589 114.427 178.083 114.226 178.499 113.906C179.435 113.137 179.558 111.754 180.262 110.769C181.14 109.544 182.79 109.135 184.296 109.161C185.583 109.18 186.982 109.502 187.834 110.47C188.507 111.217 188.774 112.243 188.973 113.231C189.366 115.202 189.581 117.205 189.616 119.215C189.639 120.241 189.616 121.309 190.051 122.242C190.749 123.748 192.624 124.552 194.233 124.137C195.519 123.799 196.562 122.802 197.24 121.653C197.757 120.716 198.155 119.717 198.424 118.681C198.353 118.829 198.282 118.961 198.205 119.092Z" fill="black"/>
<path d="M214.752 116.956C212.179 114.485 209.853 111.751 207.544 109.022C205.33 106.413 203.111 103.791 201.329 100.873C200.225 99.0682 199.241 97.0992 197.546 95.8349C196.259 94.8697 194.686 94.4193 193.264 93.6825C192.241 93.1517 191.299 92.4793 190.289 91.9291C188.086 90.738 185.606 90.153 183.103 90.2337C182.063 90.2691 180.883 90.5104 180.349 91.4047C180.166 91.7104 180.079 92.0675 179.892 92.3699C179.316 93.3351 177.93 93.6086 177.457 94.622C176.659 96.3271 179.065 97.8939 179.217 99.7696C179.287 100.709 178.77 101.584 178.618 102.514C178.361 104.122 179.194 105.657 179.998 107.06C181.719 110.065 183.813 113.356 187.194 114.112C188.391 114.379 189.655 114.292 190.823 114.672C191.764 115.028 192.635 115.548 193.396 116.206C196.573 118.71 199.372 121.659 201.708 124.96C202.796 126.495 203.78 128.097 204.877 129.622C208.368 134.453 212.95 138.393 218.249 141.121L222.196 128.573C222.804 126.643 223.283 123.995 221.553 122.49C219.385 120.537 216.885 118.996 214.752 116.956Z" fill="#FBBEBE"/>
<path d="M181.79 85.0669C181.715 85.1147 181.652 85.1783 181.604 85.2533C181.556 85.3284 181.525 85.413 181.514 85.5012C181.514 85.6621 181.646 85.7876 181.716 85.9324C181.913 86.3442 181.597 86.8203 181.237 87.1034C180.877 87.3865 180.439 87.6053 180.243 88.0203C180.213 88.0753 180.199 88.138 180.204 88.2005C180.226 88.2853 180.276 88.3601 180.346 88.4128C180.558 88.6564 180.833 88.8368 181.14 88.934C181.633 89.037 182.106 88.712 182.524 88.445C182.977 88.1581 183.461 87.9208 183.965 87.7372C184.121 87.6911 184.268 87.6181 184.399 87.5217C184.56 87.3613 184.659 87.1494 184.679 86.9233C184.789 86.1157 184.358 85.3404 183.865 84.6712C183.273 83.883 182.295 84.6326 181.79 85.0669Z" fill="#3F3D56"/>
<path opacity="0.1" d="M274.713 101.208C274.549 102.598 274.031 103.917 273.507 105.21C272.22 108.427 270.84 111.612 268.897 114.466C267.559 116.432 265.967 118.208 264.571 120.128C263.138 122.167 261.823 124.286 260.633 126.476C258.44 130.362 256.301 134.281 254.219 138.232C253.225 140.123 252.238 142.031 250.954 143.74C250.053 144.893 249.087 145.993 248.059 147.034C245.807 149.408 243.494 151.602 241.481 154.176C240.483 155.463 238.82 155.959 237.267 156.396C236.747 156.569 236.206 156.666 235.658 156.686C235.107 156.647 234.565 156.527 234.05 156.329C232.315 155.799 230.617 155.154 228.967 154.398C228.594 147.272 227.748 140.12 229.611 133.293C230.167 131.279 230.952 129.336 231.583 127.345C232.815 123.461 233.133 119.446 233.442 115.418C233.825 114.611 234.233 113.81 234.629 113.031C237.312 107.729 239.573 101.89 238.875 95.9797C238.697 94.9143 238.574 93.8405 238.505 92.7625C238.512 91.4408 238.735 90.1291 239.165 88.8793C240.127 85.9274 241.719 83.2195 243.829 80.9423C245.939 78.665 248.518 76.8726 251.388 75.6886C252.295 75.265 253.283 75.0454 254.283 75.0452C255.57 75.1127 256.802 75.7819 258.057 75.5374C262.306 77.4066 265.745 80.5981 268.315 84.4652C270.885 88.3323 271.027 93.4992 273.822 97.2055C274.649 98.3315 274.874 99.8211 274.713 101.208Z" fill="black"/>
<path d="M257.719 73.9417C256.464 74.183 255.22 73.517 253.946 73.4495C252.945 73.449 251.957 73.6687 251.051 74.0929C248.181 75.2776 245.603 77.0703 243.492 79.3474C241.382 81.6246 239.79 84.3321 238.827 87.2836C238.401 88.5385 238.181 89.8543 238.177 91.1796C238.196 92.2574 238.422 93.3191 238.547 94.3969C239.245 100.297 236.984 106.14 234.304 111.448C232.821 114.379 231.148 117.471 231.499 120.736C231.544 121.174 231.615 121.666 231.348 122.023C231.026 122.448 230.331 122.47 230.032 122.918C229.733 123.365 230.006 124.04 229.768 124.546C229.447 125.26 228.398 125.173 227.649 124.919C225.594 124.223 223.691 123.142 222.042 121.734C219.369 123.294 216.509 125.154 215.631 128.12C215.424 128.877 215.281 129.649 215.203 130.43L213.823 141.948C213.639 143.473 213.549 145.261 214.701 146.278C216.686 148.035 220.221 145.76 222.344 147.349C222.888 147.755 223.242 148.36 223.631 148.91C225.95 152.091 229.942 153.491 233.686 154.701C234.202 154.897 234.744 155.016 235.295 155.055C235.842 155.039 236.385 154.942 236.903 154.765C238.46 154.327 240.12 153.819 241.117 152.548C243.134 149.975 245.447 147.78 247.699 145.406C248.725 144.363 249.691 143.263 250.594 142.112C251.881 140.4 252.865 138.492 253.859 136.601C255.937 132.65 258.073 128.731 260.267 124.845C261.469 122.664 262.795 120.554 264.239 118.526C265.639 116.596 267.228 114.826 268.566 112.864C270.496 110.007 271.883 106.809 273.176 103.608C273.7 102.321 274.218 100.992 274.385 99.6056C274.552 98.2189 274.327 96.7294 273.484 95.613C270.689 91.9035 270.551 86.7398 267.981 82.8727C265.41 79.0056 261.972 75.8077 257.719 73.9417Z" fill="#E8E8F0"/>
<path d="M228.041 21.7872C227.636 20.9379 226.487 20.3781 225.715 20.9153C224.943 21.4526 225.043 22.6526 224.853 23.6178C224.486 25.516 222.601 26.8093 220.671 27.1117C219.767 27.2565 218.761 27.1986 218.059 26.6131C217.608 26.1804 217.275 25.6385 217.094 25.0398C215.164 19.8923 216.338 13.8825 219.497 9.39121C220.167 8.3848 220.999 7.49567 221.958 6.75951C224.618 4.82917 228.176 4.82917 231.467 4.93213C232.135 5.00459 232.811 4.92654 233.445 4.7037C233.928 4.44932 234.371 4.12399 234.758 3.73853C237.875 0.997449 242.182 -0.154319 246.338 0.029063C250.494 0.212445 254.493 1.63768 258.185 3.53263C259.951 4.43667 261.682 5.46297 263.065 6.89142C266.388 10.3113 267.199 15.3785 267.852 20.1014C268.553 25.1975 269.251 30.4351 268.071 35.4444C267.401 38.282 266.141 41.0552 266.288 43.9668C263.617 44.73 260.901 45.3305 258.156 45.7652C256.87 45.9679 255.384 46.087 254.441 45.1765C254.043 44.7491 253.751 44.233 253.592 43.6708C252.572 40.6563 252.913 37.2138 251.372 34.4277C250.728 33.2917 249.807 32.3369 248.695 31.6519C247.584 30.9668 246.317 30.5737 245.013 30.5091C244.003 30.4737 242.854 30.7215 242.336 31.5869C242.138 32.0114 241.985 32.4557 241.88 32.9124C241.165 35.0647 238.241 36.1296 236.315 34.9296C235.35 34.3248 234.69 33.321 233.818 32.5682C232.712 31.6191 231.293 31.1301 230.051 30.3644C225.915 27.8002 229.643 25.1492 228.041 21.7872Z" fill="#3F3D56"/>
<g opacity="0.1">
<path opacity="0.1" d="M268.064 33.1792C267.395 36.0168 266.134 38.79 266.282 41.7016C263.61 42.4648 260.895 43.0653 258.15 43.5C256.863 43.7027 255.377 43.8218 254.435 42.9113C254.036 42.4839 253.745 41.9678 253.585 41.4056C252.566 38.3911 252.907 34.9486 251.366 32.1625C250.722 31.0265 249.801 30.0717 248.689 29.3867C247.577 28.7016 246.311 28.3085 245.006 28.2439C243.996 28.2085 242.848 28.4563 242.33 29.3217C242.131 29.7462 241.978 30.1905 241.873 30.6472C241.159 32.7995 238.235 33.8644 236.308 32.6644C235.343 32.0596 234.684 31.0558 233.812 30.303C232.705 29.3539 231.287 28.8648 230.045 28.0991C228.926 27.4107 228.388 26.7157 228.16 25.9983C227.877 27.5458 227.797 28.9678 230.045 30.3512C231.287 31.1169 232.705 31.6059 233.812 32.555C234.684 33.3014 235.33 34.3116 236.308 34.9165C238.238 36.1101 241.159 35.0516 241.873 32.8993C241.978 32.4426 242.131 31.9983 242.33 31.5738C242.848 30.7083 243.996 30.4606 245.006 30.496C246.311 30.5606 247.577 30.9537 248.689 31.6387C249.801 32.3238 250.722 33.2786 251.366 34.4146C252.907 37.2007 252.566 40.6431 253.585 43.6577C253.747 44.2246 254.043 44.7442 254.448 45.173C255.39 46.0738 256.879 45.9644 258.163 45.7618C260.907 45.3271 263.623 44.7265 266.295 43.9633C266.137 41.0517 267.408 38.2785 268.077 35.4409C268.592 33.1189 268.799 30.739 268.691 28.363C268.64 29.985 268.43 31.5981 268.064 33.1792Z" fill="black"/>
<path opacity="0.1" d="M228.353 22.6878C228.588 21.6297 228.476 20.5238 228.031 19.5349C227.626 18.6856 226.478 18.1258 225.706 18.6631C224.934 19.2004 225.043 20.4004 224.853 21.3656C224.486 23.2637 222.601 24.557 220.671 24.8595C219.767 25.0042 218.761 24.9463 218.059 24.3608C217.608 23.9281 217.275 23.3863 217.094 22.7876C216.6 21.4495 216.3 20.0476 216.203 18.6245C216.04 20.8019 216.344 22.9891 217.094 25.0396C217.275 25.6383 217.608 26.1802 218.059 26.6129C218.761 27.1984 219.767 27.2563 220.671 27.1115C222.579 26.8091 224.474 25.5029 224.853 23.6176C225.036 22.6524 224.911 21.4846 225.709 20.9312C226.507 20.3779 227.639 20.9537 228.035 21.8031C228.172 22.0856 228.279 22.3823 228.353 22.6878Z" fill="black"/>
</g>
</g>
<defs>
<clipPath id="clip0_26_1146">
<rect width="368" height="230" fill="white"/>
</clipPath>
</defs>
</svg>
