<svg width="38" height="38" viewBox="0 0 38 38" fill="none" xmlns="http://www.w3.org/2000/svg">
<path fill-rule="evenodd" clip-rule="evenodd" d="M5.14269 37.2814C4.78251 37.2814 4.41434 37.2135 4.12201 37.0807C-0.275982 35.0767 -0.596254 33.5142 0.597031 29.1766C1.10288 27.3341 1.30841 25.2394 1.26351 22.382C1.19541 17.9709 0.997446 13.4841 0.805812 9.14074L0.805812 9.14073L0.805811 9.14071L0.79957 8.99925L0.635942 5.20536C0.526192 2.55729 1.7953 0.723418 3.9524 0.416658C6.2037 0.100358 8.51086 0.0759168 10.7447 0.0522516L10.8058 0.0516045L10.9224 0.0503238C11.8382 0.0402779 12.7522 0.0302522 13.6643 0C14.1143 0.00955638 14.4246 0.298159 14.4365 0.691882C14.4515 1.08752 14.1262 1.42008 13.7152 1.43346C12.7528 1.46498 11.7864 1.47454 10.8211 1.48409L10.8198 1.48411C8.61778 1.50609 6.34096 1.52902 4.1689 1.83483C2.21435 2.11101 2.09163 4.24303 2.12855 5.14611L2.29217 8.93713C2.48673 13.335 2.68727 17.88 2.75811 22.3591C2.806 25.354 2.58451 27.5673 2.04274 29.5407C0.957211 33.4913 1.26152 34.1899 4.76455 35.7839C4.91321 35.8536 5.25643 35.8689 5.40609 35.8135C8.06005 34.8483 8.44018 34.0618 7.66894 31.1366C7.57154 30.76 7.46191 30.3857 7.3511 30.0074L7.35109 30.0074L7.31574 29.8866L7.31564 29.8863C6.63921 27.567 5.93993 25.1695 6.96255 22.5473C7.18404 21.9816 7.84254 21.4999 8.49207 21.4264L14.9304 20.7001C15.3455 20.659 15.7136 20.9352 15.7625 21.327C15.8094 21.7207 15.5171 22.0762 15.106 22.123L8.66866 22.8503C8.5649 22.8617 8.39628 22.9812 8.36336 23.051C7.5113 25.2336 8.11592 27.3064 8.75646 29.5006C8.88318 29.9277 9.0059 30.3568 9.11764 30.783C10.0685 34.3839 9.29624 35.931 5.93688 37.1504C5.70341 37.2393 5.42704 37.2814 5.14269 37.2814ZM19.077 37.5633C19.4431 37.8404 19.9719 38 20.4568 38C20.6145 38 20.7691 37.9838 20.9118 37.9494C23.6166 37.2775 24.8778 35.4026 24.766 32.2193L24.7391 31.4959L24.7389 31.4911C24.6127 28.232 24.4931 25.1434 26.7593 22.5615L29.8972 27.9728C28.7183 31.1746 28.952 33.0461 30.8681 35.9129C31.1944 36.4031 31.8749 36.7491 32.5194 36.7558L32.9614 36.7663L33.0166 36.768L33.0168 36.768C33.1892 36.7732 33.3674 36.7787 33.552 36.7787C34.9179 36.7787 36.5432 36.5102 37.4113 34.0933C38.4619 31.1777 38.3581 29.4327 34.9948 26.1673C34.5039 25.6904 33.6678 25.5738 33.0522 25.894L31.0168 26.9495L27.9747 21.7035C27.8661 21.518 27.6847 21.396 27.4843 21.3525C27.5397 20.8945 27.4516 20.3702 27.325 19.904C27.5969 19.9016 27.8571 19.7567 27.9887 19.5074L36.9643 2.3136C37.1489 1.96001 36.9992 1.52902 36.629 1.35223C36.2589 1.17544 35.8109 1.31878 35.6253 1.67332L26.823 18.5353C24.969 14.1217 23.052 9.65979 21.1962 5.34202L19.3663 1.08369C19.2097 0.717684 18.7767 0.540891 18.3895 0.693793C18.0074 0.844784 17.8258 1.26144 17.9835 1.62936L19.8133 5.88864C21.725 10.3324 23.7015 14.9299 25.6011 19.4654C25.9424 20.292 26.0591 21.0642 26.0421 21.1789C24.4278 22.8015 23.6995 24.5876 23.3912 26.4349L23.3884 26.4347C23.3685 26.4338 23.3493 26.433 23.3293 26.433H21.0026C20.4409 26.433 19.7395 26.691 19.3344 27.0503C16.9728 29.1537 15.8653 31.0554 15.9471 32.8663C16.0199 34.5043 17.0446 36.0409 19.077 37.5633ZM20.3531 28.1015C20.4818 27.9868 20.815 27.8655 21.0026 27.8655H23.2255C23.1457 29.0887 23.1946 30.3262 23.2435 31.5485L23.2684 32.2662C23.3582 34.7776 22.5401 36.0629 20.5327 36.5608C20.4239 36.5895 20.1236 36.5293 20.0009 36.4366C18.3347 35.1856 17.4966 33.9987 17.4437 32.8051C17.3818 31.4386 18.3347 29.901 20.3531 28.1015ZM31.3191 28.4235C30.2895 31.2016 30.4671 32.6589 32.1293 35.1398C32.1742 35.2067 32.3907 35.3194 32.5383 35.3213L33.0103 35.3328C34.431 35.3796 35.3599 35.4026 35.9975 33.626C36.8585 31.235 36.9034 30.0615 33.9322 27.1736C33.9012 27.1516 33.8055 27.1382 33.7646 27.1545L31.3361 28.413C31.3328 28.4157 31.3302 28.4175 31.3278 28.419C31.325 28.4207 31.3223 28.422 31.3191 28.4235ZM13.6613 8.12101C13.6713 8.12197 13.6813 8.12197 13.6912 8.12197C14.0903 8.12197 14.4216 7.81903 14.4375 7.432C14.4525 7.03732 14.1312 6.70476 13.7182 6.68947L5.07384 6.37124C4.70369 6.34066 4.31557 6.66271 4.29861 7.0593C4.28264 7.45493 4.60391 7.78654 5.01697 7.80279L13.6613 8.12101ZM14.3537 19.5858H5.7094C5.29634 19.5858 4.9611 19.2647 4.9611 18.8691C4.9611 18.4734 5.29634 18.1523 5.7094 18.1523H14.3537C14.7668 18.1523 15.102 18.4734 15.102 18.8691C15.102 19.2647 14.7668 19.5858 14.3537 19.5858ZM5.7094 13.8539H14.3537C14.7668 13.8539 15.102 13.5328 15.102 13.1372C15.102 12.7415 14.7668 12.4204 14.3537 12.4204H5.7094C5.29634 12.4204 4.9611 12.7415 4.9611 13.1372C4.9611 13.5328 5.29634 13.8539 5.7094 13.8539ZM14.3537 4.61956H5.7094C5.29634 4.61956 4.9611 4.29846 4.9611 3.90283C4.9611 3.50719 5.29634 3.1861 5.7094 3.1861H14.3537C14.7668 3.1861 15.102 3.50719 15.102 3.90283C15.102 4.29846 14.7668 4.61956 14.3537 4.61956ZM5.7094 16.4016H13.6892C14.1023 16.4016 14.4375 16.0805 14.4375 15.6849C14.4375 15.2893 14.1023 14.9682 13.6892 14.9682H5.7094C5.29634 14.9682 4.9611 15.2893 4.9611 15.6849C4.9611 16.0805 5.29634 16.4016 5.7094 16.4016ZM13.6892 10.6707H5.7094C5.29634 10.6707 4.9611 10.3496 4.9611 9.95393C4.9611 9.55829 5.29634 9.2372 5.7094 9.2372H13.6892C14.1023 9.2372 14.4375 9.55829 14.4375 9.95393C14.4375 10.3496 14.1023 10.6707 13.6892 10.6707Z" fill="#EBEBEB"/>
</svg>
