<svg width="22" height="38" viewBox="0 0 22 38" fill="none" xmlns="http://www.w3.org/2000/svg">
<path fill-rule="evenodd" clip-rule="evenodd" d="M21.9567 34.8206L17.723 22.9964C17.662 22.8265 17.5383 22.6887 17.3793 22.6131C17.22 22.537 17.0381 22.5297 16.8736 22.5925L14.5981 23.4669L8.85076 7.42977L9.59769 7.14229C9.82332 7.06054 9.98875 6.859 10.0303 6.61524C10.0719 6.37147 9.9831 6.12346 9.79814 5.96664C9.61319 5.80982 9.36088 5.76863 9.1383 5.85891L8.38972 6.14468L8.19472 5.5971L9.42418 5.12481C9.64981 5.04306 9.81523 4.84152 9.8568 4.59776C9.89836 4.35399 9.80958 4.10598 9.62463 3.94916C9.43967 3.79234 9.18736 3.75114 8.96478 3.84143L7.73368 4.31371L7.53868 3.76442L8.28561 3.47866C8.51124 3.3969 8.67667 3.19537 8.71823 2.9516C8.75979 2.70784 8.67101 2.45983 8.48606 2.30301C8.30111 2.14618 8.04879 2.10499 7.82622 2.19527L7.07763 2.48104L6.88264 1.93346L7.14704 1.83079C7.48254 1.6947 7.65098 1.30544 7.52575 0.955575C7.40051 0.605714 7.02775 0.424173 6.68765 0.547406L6.42159 0.650077L6.35384 0.458425C6.27489 0.224779 6.08027 0.05348 5.84486 0.0104413C5.60946 -0.0325974 5.36995 0.0593314 5.21851 0.250854C5.06707 0.442377 5.02729 0.703648 5.11447 0.934133L5.18222 1.12578L5.07812 1.16514C4.73587 1.29887 4.56312 1.69457 4.69226 2.04897C4.8214 2.40336 5.20353 2.58225 5.54577 2.44853L5.64988 2.40917L5.84487 2.95675L5.25824 3.18262C4.95432 3.33686 4.81201 3.70391 4.92857 4.03296C5.04512 4.362 5.38287 4.54671 5.71102 4.46087L6.29766 4.235L6.49265 4.78429L5.42349 5.19497C5.08124 5.32681 4.90701 5.72098 5.03433 6.07537C5.16164 6.42977 5.54229 6.61019 5.88453 6.47836L6.9537 6.06767L7.14869 6.61696L6.56206 6.84113C6.21981 6.97296 6.04558 7.36713 6.17289 7.72153C6.30021 8.07592 6.68086 8.25635 7.0231 8.12451L7.60974 7.90035L13.3522 23.9375L11.0833 24.8239C10.7411 24.9553 10.5665 25.3491 10.6933 25.7035L14.9286 37.5294C14.9897 37.6993 15.1133 37.8371 15.2724 37.9127C15.359 37.9539 15.453 37.9755 15.5483 37.976C15.6267 37.9754 15.7044 37.961 15.778 37.9333L21.5618 35.7087C21.729 35.6467 21.8651 35.5177 21.9394 35.3506C22.0137 35.1835 22.0199 34.9925 21.9567 34.8206ZM15.9383 36.4035L12.1558 25.8609L16.7067 24.1138L20.481 34.6546L15.9383 36.4035ZM6.296 11.4083H6.83472C7.19978 11.4083 7.49572 11.7147 7.49572 12.0927V37.3155C7.49572 37.6936 7.19978 38 6.83472 38H0.660998C0.295939 38 0 37.6936 0 37.3155V12.0927C0 11.7147 0.295939 11.4083 0.660998 11.4083H1.19971V8.1844C1.19971 7.80638 1.49565 7.49993 1.86071 7.49993H5.63501C6.00007 7.49993 6.296 7.80638 6.296 8.1844V11.4083ZM4.97401 8.86887H2.52171V11.4083H4.97401V8.86887ZM6.17372 36.6311H1.322V12.7772H6.17372V36.6311Z" fill="#EBEBEB"/>
</svg>
