<svg width="33" height="38" viewBox="0 0 33 38" fill="none" xmlns="http://www.w3.org/2000/svg">
<path fill-rule="evenodd" clip-rule="evenodd" d="M32.9332 34.7251C30.5493 29.554 28.9947 22.2044 28.397 17.4829C28.3694 17.2665 28.2443 17.0757 28.0591 16.9675C27.8738 16.8594 27.6497 16.8463 27.4536 16.9322L23.5372 18.6541L18.1666 5.84926C18.0202 3.62013 17.3953 1.84066 16.2067 0.272072C16.0868 0.113951 15.9063 0.0161886 15.7112 0.00366972C14.8479 -0.0503593 13.8688 0.496902 13.3273 1.33522C12.8948 2.01494 12.8284 2.76786 13.1468 3.40227C13.2366 3.57557 13.3936 3.70211 13.5793 3.75084C14.8836 4.09942 15.9632 4.95342 16.8929 6.34598L22.2891 19.2031L18.6076 20.8205C18.5877 20.7669 18.5614 20.7159 18.5293 20.6689L14.8785 15.557C14.7503 15.3774 14.5459 15.2712 14.3285 15.2712H12.2154V12.6273C12.2154 12.2423 11.9104 11.9301 11.5342 11.9301H7.11721C6.74104 11.9301 6.43609 12.2423 6.43609 12.6273V15.2712H4.33144C4.11405 15.2712 3.9097 15.3774 3.78144 15.557L0.132359 20.6689C0.0208376 20.8241 -0.0229257 21.0197 0.011461 21.2092L2.89429 36.9386C2.9468 37.2262 3.16918 37.4496 3.4511 37.4981C7.34022 38.1673 11.3112 38.1673 15.2004 37.4981C15.4829 37.4503 15.7061 37.2267 15.7589 36.9386L18.3965 22.5372C21.4224 26.4727 25.1838 32.4071 27.0943 37.3011C27.1628 37.4757 27.2973 37.6147 27.4673 37.6863C27.5496 37.7222 27.6383 37.7406 27.7278 37.7403C27.8198 37.7402 27.9108 37.7206 27.9951 37.6828L32.5927 35.668C32.7616 35.5921 32.8933 35.4493 32.9575 35.2722C33.0216 35.0951 33.0129 34.899 32.9332 34.7286V34.7251ZM14.3149 2.53083C14.3302 2.37406 14.3847 2.22398 14.4733 2.09511C14.6813 1.77579 14.9903 1.53947 15.3485 1.42585C15.8367 2.1322 16.2067 2.91674 16.4434 3.74736C15.8155 3.20769 15.0932 2.79488 14.3149 2.53083ZM10.8531 13.3244H7.79832V15.2712H10.8531V13.3244ZM14.5073 36.1996C11.0732 36.7417 7.57823 36.7417 4.14413 36.1996L1.40605 21.2493L4.67711 16.6655H13.9743L17.2471 21.2493L14.5073 36.1996ZM19.6276 21.8854C22.381 25.4966 25.9926 31.0459 28.0939 36.1194L31.4075 34.6659C29.262 29.7283 27.8248 23.1856 27.1693 18.574L19.6276 21.8854ZM12.1507 22.7725C12.1507 22.0928 12.9322 20.3151 13.2728 19.5831C13.3855 19.3396 13.6251 19.1844 13.8884 19.1844C14.1516 19.1844 14.3912 19.3396 14.5039 19.5831C14.8411 20.3151 15.6261 22.0928 15.6261 22.7725C15.6459 23.4212 15.3191 24.0296 14.7733 24.3599C14.2275 24.6903 13.5492 24.6903 13.0034 24.3599C12.4576 24.0296 12.1308 23.4212 12.1507 22.7725ZM13.5129 22.7795C13.5157 22.9892 13.6826 23.1577 13.8875 23.1577C14.0934 23.1577 14.261 22.9884 14.2638 22.7778C14.1769 22.3805 14.0508 21.9934 13.8875 21.6222C13.7243 21.9939 13.5987 22.3816 13.5129 22.7795ZM13.6968 10.7886C14.6559 10.7866 15.4327 9.99078 15.4336 9.00908C15.4336 8.35725 14.664 6.18563 14.3336 5.28283C14.2339 5.0108 13.9798 4.83061 13.6959 4.83061C13.4121 4.83061 13.158 5.0108 13.0582 5.28283C12.7279 6.18563 11.9582 8.35725 11.9582 9.00908C11.9592 9.99146 12.737 10.7876 13.6968 10.7886ZM13.6968 7.62524C13.8589 8.07868 13.9842 8.54502 14.0714 9.01954C14.0581 9.22176 13.894 9.37882 13.6959 9.37882C13.4979 9.37882 13.3338 9.22176 13.3205 9.01954C13.4081 8.54495 13.534 8.0786 13.6968 7.62524Z" fill="#EBEBEB"/>
</svg>
